<svg xmlns="http://www.w3.org/2000/svg"  width="2764"
    zoomAndPan="magnify" viewBox="0 0 2073 1800.749924" height="2401"
    preserveAspectRatio="xMidYMid meet" version="1.0">
    <defs>
        <clipPath id="3427b37934">
            <path d="M 274 2.507812 L 1778 2.507812 L 1778 1505 L 274 1505 Z M 274 2.507812 "
                clip-rule="nonzero" />
        </clipPath>
    </defs>
    <g clip-path="url(#3427b37934)">
        <path fill="#ff8f7d"
            d="M 1777.121094 753.523438 C 1777.121094 1168.34375 1440.789062 1504.632812 1025.914062 1504.632812 C 611.027344 1504.632812 274.699219 1168.34375 274.699219 753.523438 C 274.699219 338.691406 611.027344 2.40625 1025.914062 2.40625 C 1440.789062 2.40625 1777.121094 338.691406 1777.121094 753.523438 "
            fill-opacity="1" fill-rule="nonzero" />
    </g>
    <path fill="#3d4353"
        d="M 989.417969 990.691406 L 907.691406 990.691406 L 959.550781 806.730469 C 969.769531 768.050781 978.414062 729.375 986.277344 691.636719 L 987.847656 691.636719 C 988.367188 694.085938 988.898438 696.554688 989.417969 699.003906 L 989.417969 618.992188 L 947.765625 618.992188 L 767.828125 1254.84375 L 838.550781 1254.84375 L 893.550781 1054.839844 L 989.417969 1054.839844 L 989.417969 990.691406 "
        fill-opacity="1" fill-rule="nonzero" />
    <path fill="#252c3e"
        d="M 989.417969 990.691406 L 1071.140625 990.691406 L 1019.28125 806.730469 C 1009.054688 768.050781 1000.417969 729.375 992.558594 691.636719 L 990.988281 691.636719 C 990.46875 694.085938 989.9375 696.554688 989.417969 699.003906 L 989.417969 618.992188 L 1031.058594 618.992188 L 1211.007812 1254.84375 L 1140.285156 1254.84375 L 1085.285156 1054.839844 L 989.417969 1054.839844 L 989.417969 990.691406 "
        fill-opacity="1" fill-rule="nonzero" />
    <path fill="#f5f5f5"
        d="M 1422.503906 926.011719 L 538.632812 926.011719 L 538.632812 193.019531 L 1422.503906 193.019531 L 1422.503906 926.011719 "
        fill-opacity="1" fill-rule="nonzero" />
    <path fill="#252c3e"
        d="M 1484.890625 193.019531 L 476.234375 193.019531 L 476.234375 151.429688 L 1484.890625 151.429688 L 1484.890625 193.019531 "
        fill-opacity="1" fill-rule="nonzero" />
    <path fill="#c6a081"
        d="M 1601.523438 837.574219 C 1601.523438 857.863281 1587.230469 874.3125 1569.605469 874.3125 L 1549.777344 874.3125 C 1532.144531 874.3125 1517.851562 857.863281 1517.851562 837.574219 L 1517.851562 638.5625 C 1517.851562 618.273438 1532.144531 601.824219 1549.777344 601.824219 L 1569.605469 601.824219 C 1587.230469 601.824219 1601.523438 618.273438 1601.523438 638.5625 L 1601.523438 837.574219 "
        fill-opacity="1" fill-rule="nonzero" />
    <path fill="#dbba9a"
        d="M 1559.683594 601.824219 L 1549.777344 601.824219 C 1532.144531 601.824219 1517.851562 618.273438 1517.851562 638.5625 L 1517.851562 837.574219 C 1517.851562 857.863281 1532.144531 874.3125 1549.777344 874.3125 L 1559.683594 874.3125 L 1559.683594 601.824219 "
        fill-opacity="1" fill-rule="nonzero" />
    <path fill="#ebcdab"
        d="M 1694.820312 543.9375 C 1694.820312 648.078125 1635.050781 732.488281 1561.339844 732.488281 C 1487.609375 732.488281 1427.847656 648.078125 1427.847656 543.9375 C 1427.847656 439.804688 1487.609375 355.386719 1561.339844 355.386719 C 1635.050781 355.386719 1694.820312 439.804688 1694.820312 543.9375 "
        fill-opacity="1" fill-rule="nonzero" />
    <path fill="#dbba9a"
        d="M 1695.566406 543.9375 C 1695.566406 439.804688 1634.53125 355.386719 1559.257812 355.386719 L 1559.257812 732.488281 C 1634.53125 732.488281 1695.566406 648.078125 1695.566406 543.9375 "
        fill-opacity="1" fill-rule="nonzero" />
    <path fill="#603e25"
        d="M 1412.355469 452.734375 C 1412.355469 452.734375 1424.984375 518.984375 1420.8125 552.101562 C 1416.640625 585.222656 1434.128906 600.640625 1434.128906 600.640625 C 1434.128906 600.640625 1432.804688 550.878906 1443.210938 514.644531 C 1448.414062 496.53125 1444.613281 462.480469 1458.753906 437.328125 C 1472.898438 412.175781 1504.835938 398.167969 1526.554688 398.433594 C 1561.140625 398.867188 1559.332031 403.4375 1559.332031 403.4375 L 1559.332031 300.460938 C 1559.332031 300.460938 1511.132812 298.671875 1445.398438 313.058594 C 1379.660156 327.425781 1381.710938 371.589844 1381.710938 371.589844 C 1381.710938 371.589844 1399.855469 351.054688 1412.355469 362.359375 C 1424.859375 373.652344 1404.71875 399.066406 1412.355469 452.734375 "
        fill-opacity="1" fill-rule="nonzero" />
    <path fill="#4c2d18"
        d="M 1710.890625 452.726562 C 1710.890625 452.726562 1698.726562 518.976562 1702.746094 552.089844 C 1706.765625 585.214844 1689.917969 600.632812 1689.917969 600.632812 C 1689.917969 600.632812 1691.195312 550.871094 1681.167969 514.644531 C 1676.152344 496.519531 1679.824219 462.46875 1666.191406 437.320312 C 1652.570312 412.167969 1626.488281 399.464844 1600.871094 398.425781 C 1559.058594 396.722656 1559.3125 403.429688 1559.3125 403.429688 L 1559.3125 300.449219 C 1559.3125 300.449219 1616.699219 294.425781 1673.203125 327.417969 C 1704.363281 345.625 1718.261719 399.058594 1710.890625 452.726562 "
        fill-opacity="1" fill-rule="nonzero" />
    <path fill="#0d0c12"
        d="M 1696.304688 537.222656 C 1695.574219 546.292969 1692.414062 577.882812 1684.839844 583.503906 C 1676.863281 589.414062 1655.390625 591.703125 1642.828125 592.546875 C 1630.273438 593.386719 1598.828125 591.96875 1592.007812 585.632812 C 1585.1875 579.292969 1575.246094 543.21875 1578.253906 532.652344 C 1581.25 522.097656 1603.71875 514.21875 1630.273438 512.523438 C 1656.816406 510.832031 1679.625 514.644531 1679.625 514.644531 C 1700.636719 518.019531 1697.011719 528.160156 1696.304688 537.222656 Z M 1526.734375 585.632812 C 1519.914062 591.96875 1488.457031 593.386719 1475.894531 592.546875 C 1463.34375 591.703125 1441.867188 589.414062 1433.902344 583.503906 C 1426.316406 577.882812 1423.148438 546.292969 1422.429688 537.222656 C 1421.710938 528.160156 1418.097656 518.019531 1439.097656 514.644531 C 1439.097656 514.644531 1461.90625 510.832031 1488.457031 512.523438 C 1515.011719 514.21875 1537.472656 522.097656 1540.480469 532.652344 C 1543.496094 543.21875 1533.546875 579.292969 1526.734375 585.632812 Z M 1708.855469 507.03125 C 1708.855469 507.03125 1665.078125 501.960938 1630.984375 504.070312 C 1596.898438 506.1875 1569.425781 514.21875 1564.6875 515.058594 C 1564.394531 515.105469 1564.109375 515.15625 1563.816406 515.191406 L 1563.816406 515.058594 C 1563.816406 515.058594 1561.925781 515.371094 1559.359375 515.429688 C 1556.808594 515.371094 1554.90625 515.058594 1554.90625 515.058594 L 1554.90625 515.191406 C 1554.621094 515.15625 1554.339844 515.105469 1554.042969 515.058594 C 1549.304688 514.21875 1521.824219 506.1875 1487.738281 504.070312 C 1453.65625 501.960938 1409.875 507.03125 1409.875 507.03125 C 1406.601562 507.390625 1409.875 532.652344 1409.875 532.652344 C 1409.875 532.652344 1414.167969 533.230469 1414.890625 536.605469 C 1415.617188 539.984375 1418.484375 575.898438 1424.945312 585.632812 C 1431.394531 595.375 1458.667969 599.980469 1479.132812 600.492188 C 1499.582031 600.984375 1519.875 600.679688 1532.238281 592.546875 C 1544.605469 584.410156 1551.613281 545.90625 1554.042969 539.140625 C 1554.707031 537.296875 1555.746094 536.285156 1556.910156 535.765625 C 1557.621094 535.539062 1558.472656 535.347656 1559.359375 535.320312 C 1560.25 535.347656 1561.101562 535.539062 1561.832031 535.765625 C 1562.976562 536.285156 1564.015625 537.296875 1564.6875 539.140625 C 1567.109375 545.90625 1574.117188 584.410156 1586.492188 592.546875 C 1598.847656 600.679688 1619.148438 600.984375 1639.601562 600.492188 C 1660.0625 599.980469 1687.316406 595.375 1693.789062 585.632812 C 1700.25 575.898438 1703.113281 539.984375 1703.832031 536.605469 C 1704.554688 533.230469 1708.855469 532.652344 1708.855469 532.652344 C 1708.855469 532.652344 1712.121094 507.390625 1708.855469 507.03125 "
        fill-opacity="1" fill-rule="nonzero" />
    <path fill="#0d0c12"
        d="M 1505.242188 543.9375 C 1505.242188 553 1497.890625 560.339844 1488.835938 560.339844 C 1479.785156 560.339844 1472.441406 553 1472.441406 543.9375 C 1472.441406 534.886719 1479.785156 527.546875 1488.835938 527.546875 C 1497.890625 527.546875 1505.242188 534.886719 1505.242188 543.9375 "
        fill-opacity="1" fill-rule="nonzero" />
    <path fill="#0d0c12"
        d="M 1647.671875 543.9375 C 1647.671875 552.988281 1640.328125 560.339844 1631.277344 560.339844 C 1622.214844 560.339844 1614.871094 552.988281 1614.871094 543.9375 C 1614.871094 534.886719 1622.214844 527.546875 1631.277344 527.546875 C 1640.328125 527.546875 1647.671875 534.886719 1647.671875 543.9375 "
        fill-opacity="1" fill-rule="nonzero" />
    <path fill="#603e25"
        d="M 1559.257812 696.65625 C 1554.699219 703.675781 1546.769531 712.234375 1534.738281 713.550781 C 1513.847656 715.847656 1510.207031 677.976562 1510.207031 677.976562 C 1510.207031 677.976562 1511.476562 663.050781 1531.226562 659.617188 C 1550.773438 656.203125 1559.078125 659.53125 1559.257812 659.609375 L 1559.257812 628.054688 C 1536.335938 622.511719 1518.496094 627.769531 1505.902344 635.082031 C 1491.125 643.652344 1483.578125 655.019531 1483.578125 655.019531 L 1432.484375 600.632812 C 1432.484375 600.632812 1455.691406 703.222656 1483.578125 732.488281 C 1511.363281 761.648438 1558.886719 767.457031 1559.257812 767.496094 L 1559.257812 696.65625 "
        fill-opacity="1" fill-rule="nonzero" />
    <path fill="#4c2d18"
        d="M 1559.257812 696.65625 C 1563.921875 703.675781 1572.027344 712.234375 1584.355469 713.550781 C 1605.734375 715.847656 1609.460938 677.976562 1609.460938 677.976562 C 1609.460938 677.976562 1608.175781 663.050781 1587.949219 659.617188 C 1567.941406 656.203125 1559.4375 659.53125 1559.257812 659.609375 L 1559.257812 628.054688 C 1582.71875 622.511719 1600.984375 627.769531 1613.878906 635.082031 C 1629.003906 643.652344 1636.734375 655.019531 1636.734375 655.019531 L 1689.039062 600.632812 C 1689.039062 600.632812 1665.285156 703.222656 1636.734375 732.488281 C 1608.289062 761.648438 1559.636719 767.457031 1559.257812 767.496094 L 1559.257812 696.65625 "
        fill-opacity="1" fill-rule="nonzero" />
    <path fill="#5d6475"
        d="M 1560.675781 823.128906 L 1561.339844 1283.050781 L 1444.375 1283.050781 L 1427.847656 847.617188 L 1517.851562 823.128906 L 1560.675781 823.128906 "
        fill-opacity="1" fill-rule="nonzero" />
    <path fill="#3d4353"
        d="M 1558.066406 823.128906 L 1557.402344 1283.050781 L 1674.367188 1283.050781 L 1690.890625 847.617188 L 1600.890625 823.128906 L 1558.066406 823.128906 "
        fill-opacity="1" fill-rule="nonzero" />
    <path fill="#dbba9a"
        d="M 1280.054688 964.199219 L 1224.394531 870.074219 C 1224.394531 870.074219 1220.363281 833.335938 1215 827.207031 C 1209.644531 821.085938 1185.929688 823.128906 1185.929688 823.128906 C 1185.929688 823.128906 1146.878906 818.796875 1148.410156 829.503906 C 1149.945312 840.222656 1160.652344 840.355469 1160.652344 840.355469 C 1160.652344 840.355469 1150.710938 844.054688 1153.773438 851.707031 C 1156.832031 859.355469 1166.015625 853.996094 1166.015625 853.996094 C 1166.015625 853.996094 1159.128906 858.589844 1164.484375 865.476562 C 1169.839844 872.363281 1175.96875 867.777344 1175.96875 867.777344 C 1175.96875 867.777344 1172.136719 867.839844 1175.203125 874.3125 C 1178.257812 880.78125 1185.910156 879.25 1185.910156 879.25 L 1202.75 886.910156 L 1263.21875 996.339844 L 1280.054688 964.199219 "
        fill-opacity="1" fill-rule="nonzero" />
    <path fill="#4c2d18"
        d="M 1175.203125 827.972656 L 1107.34375 689.808594 L 1191.273438 827.972656 Z M 1175.203125 827.972656 "
        fill-opacity="1" fill-rule="nonzero" />
    <path fill="#63c4ef"
        d="M 1517.851562 804.761719 L 1559.683594 823.128906 L 1547.441406 890.476562 L 1505.242188 839.457031 L 1517.851562 804.761719 "
        fill-opacity="1" fill-rule="nonzero" />
    <path fill="#50a9c9"
        d="M 1602.519531 804.761719 L 1560.675781 823.128906 L 1572.917969 890.476562 L 1615.128906 839.457031 L 1602.519531 804.761719 "
        fill-opacity="1" fill-rule="nonzero" />
    <path fill="#f07e66"
        d="M 1559.257812 665.652344 L 1529.144531 665.652344 C 1529.144531 665.652344 1533.675781 674.089844 1542.9375 678.828125 C 1552.210938 683.558594 1559.257812 684.066406 1559.257812 684.066406 L 1559.257812 665.652344 "
        fill-opacity="1" fill-rule="nonzero" />
    <path fill="#db6552"
        d="M 1559.257812 665.652344 L 1589.367188 665.652344 C 1589.367188 665.652344 1584.835938 674.089844 1575.566406 678.828125 C 1566.304688 683.558594 1559.257812 684.066406 1559.257812 684.066406 L 1559.257812 665.652344 "
        fill-opacity="1" fill-rule="nonzero" />
    <path fill="#63c4ef"
        d="M 1428.226562 847.617188 C 1428.226562 847.617188 1405.902344 831.285156 1388.078125 847.617188 C 1370.265625 863.945312 1311.71875 960.375 1296.441406 960.375 C 1281.171875 960.375 1281.171875 960.375 1281.171875 960.375 L 1271.53125 1004.386719 C 1271.53125 1004.386719 1302.324219 1029.09375 1333.75 1010.800781 C 1365.167969 992.515625 1430.089844 906.734375 1430.089844 906.734375 L 1428.226562 847.617188 "
        fill-opacity="1" fill-rule="nonzero" />
    <path fill="#7fd5f4"
        d="M 1277.617188 952.722656 C 1277.617188 952.722656 1293.78125 954.105469 1292.316406 959.648438 C 1290.839844 965.191406 1282.023438 1009.796875 1277.617188 1011.378906 C 1273.199219 1012.96875 1256.300781 1008.664062 1255.574219 1005.277344 C 1254.835938 1001.890625 1277.617188 952.722656 1277.617188 952.722656 "
        fill-opacity="1" fill-rule="nonzero" />
    <path fill="#4c2d18"
        d="M 1197.207031 873.128906 L 1209.890625 873.128906 C 1209.890625 873.128906 1217.023438 882.757812 1209.890625 884.828125 C 1202.75 886.910156 1197.207031 874.3125 1197.207031 874.3125 L 1197.207031 873.128906 "
        fill-opacity="1" fill-rule="nonzero" />
    <path fill="#dbba9a"
        d="M 1791.820312 1003.042969 C 1791.820312 1003.042969 1848.058594 936.597656 1852.6875 924.273438 C 1858.617188 908.46875 1889.816406 880.203125 1892.542969 885.777344 C 1895.257812 891.355469 1884.386719 909.402344 1884.386719 909.402344 C 1884.386719 909.402344 1938.742188 896.746094 1938.742188 902.679688 C 1938.742188 908.597656 1947.4375 929.210938 1918.453125 937.570312 C 1889.464844 945.933594 1870.800781 954.570312 1870.800781 954.570312 L 1799.464844 1051.140625 L 1791.820312 1003.042969 "
        fill-opacity="1" fill-rule="nonzero" />
    <path fill="#50b5d8"
        d="M 1690.609375 846.179688 C 1690.609375 846.179688 1717.085938 838.207031 1728.46875 859.519531 C 1739.847656 880.847656 1763.015625 991.25 1777.414062 996.320312 C 1791.820312 1001.398438 1791.820312 1001.398438 1791.820312 1001.398438 L 1786.277344 1046.121094 C 1786.277344 1046.121094 1749.023438 1059.171875 1725.460938 1031.488281 C 1713.125 1016.988281 1686.929688 951.890625 1686.929688 951.890625 L 1690.609375 846.179688 "
        fill-opacity="1" fill-rule="nonzero" />
    <path fill="#66bfd8"
        d="M 1797.714844 995.363281 C 1797.714844 995.363281 1782.011719 991.296875 1781.558594 997.011719 C 1781.101562 1002.722656 1774.585938 1047.726562 1778.21875 1050.6875 C 1781.851562 1053.648438 1799.21875 1055.210938 1801.035156 1052.257812 C 1802.859375 1049.308594 1797.714844 995.363281 1797.714844 995.363281 "
        fill-opacity="1" fill-rule="nonzero" />
    <path fill="#dd6652"
        d="M 1701.820312 1663.792969 L 1701.820312 1591.472656 C 1701.820312 1552.605469 1671.082031 1521.082031 1633.167969 1521.082031 L 1563.125 1521.082031 L 1563.125 1464.375 C 1611.105469 1443.878906 1645.777344 1385.035156 1645.777344 1315.597656 C 1645.777344 1229.136719 1669.191406 1159.039062 1525.742188 1159.039062 C 1525.285156 1159.039062 1524.859375 1159.046875 1524.417969 1159.046875 C 1523.953125 1159.046875 1523.527344 1159.039062 1523.082031 1159.039062 C 1379.632812 1159.039062 1403.046875 1229.136719 1403.046875 1315.597656 C 1403.046875 1385.035156 1437.707031 1443.878906 1485.6875 1464.375 L 1485.6875 1521.082031 L 1416.980469 1521.082031 C 1379.0625 1521.082031 1348.328125 1552.605469 1348.328125 1591.472656 L 1348.328125 1663.792969 L 1340.589844 1663.792969 L 1340.589844 1591.472656 C 1340.589844 1552.605469 1309.863281 1521.082031 1271.949219 1521.082031 L 1201.90625 1521.082031 L 1201.90625 1464.375 C 1249.878906 1443.878906 1284.558594 1385.035156 1284.558594 1315.597656 C 1284.558594 1229.136719 1307.964844 1159.039062 1164.511719 1159.039062 C 1164.058594 1159.039062 1163.632812 1159.046875 1163.1875 1159.046875 C 1162.734375 1159.046875 1162.308594 1159.039062 1161.855469 1159.039062 C 1018.402344 1159.039062 1041.816406 1229.136719 1041.816406 1315.597656 C 1041.816406 1385.035156 1076.488281 1443.878906 1124.457031 1464.375 L 1124.457031 1521.082031 L 1055.75 1521.082031 C 1017.84375 1521.082031 987.101562 1552.605469 987.101562 1591.472656 L 987.101562 1663.792969 L 979.371094 1663.792969 L 979.371094 1591.472656 C 979.371094 1552.605469 948.636719 1521.082031 910.71875 1521.082031 L 840.6875 1521.082031 L 840.6875 1464.375 C 888.660156 1443.867188 923.332031 1385.035156 923.332031 1315.597656 C 923.332031 1229.136719 946.734375 1159.039062 803.285156 1159.039062 C 802.839844 1159.039062 802.414062 1159.046875 801.960938 1159.046875 C 801.503906 1159.046875 801.078125 1159.039062 800.625 1159.039062 C 657.183594 1159.039062 680.589844 1229.136719 680.589844 1315.597656 C 680.589844 1385.035156 715.257812 1443.878906 763.238281 1464.375 L 763.238281 1521.082031 L 694.523438 1521.082031 C 656.617188 1521.082031 625.871094 1552.605469 625.871094 1591.472656 L 625.871094 1663.792969 L 618.144531 1663.792969 L 618.144531 1591.472656 C 618.144531 1552.605469 587.40625 1521.082031 549.492188 1521.082031 L 479.460938 1521.082031 L 479.460938 1464.375 C 527.441406 1443.878906 562.101562 1385.035156 562.101562 1315.597656 C 562.101562 1229.136719 585.507812 1159.039062 442.066406 1159.039062 C 441.609375 1159.039062 441.183594 1159.046875 440.730469 1159.046875 C 440.285156 1159.046875 439.859375 1159.039062 439.398438 1159.039062 C 295.957031 1159.039062 319.359375 1229.136719 319.359375 1315.597656 C 319.359375 1385.035156 354.03125 1443.878906 402.019531 1464.375 L 402.019531 1521.082031 L 333.304688 1521.082031 C 295.386719 1521.082031 264.652344 1552.605469 264.652344 1591.472656 L 264.652344 1663.792969 L 228.023438 1663.792969 L 228.023438 1686.039062 L 1759.742188 1686.039062 L 1759.742188 1663.792969 L 1701.820312 1663.792969 "
        fill-opacity="1" fill-rule="nonzero" />
    <path fill="#c6a081"
        d="M 248.597656 1671.632812 C 248.597656 1682.71875 233.367188 1691.707031 214.582031 1691.707031 L 193.464844 1691.707031 C 174.679688 1691.707031 159.449219 1682.71875 159.449219 1671.632812 L 159.449219 1562.90625 C 159.449219 1551.820312 174.679688 1542.835938 193.464844 1542.835938 L 214.582031 1542.835938 C 233.367188 1542.835938 248.597656 1551.820312 248.597656 1562.90625 L 248.597656 1671.632812 "
        fill-opacity="1" fill-rule="nonzero" />
    <path fill="#dbba9a"
        d="M 204.015625 1542.835938 L 193.464844 1542.835938 C 174.667969 1542.835938 159.449219 1551.820312 159.449219 1562.90625 L 159.449219 1671.632812 C 159.449219 1682.71875 174.667969 1691.707031 193.464844 1691.707031 L 204.015625 1691.707031 L 204.015625 1542.835938 "
        fill-opacity="1" fill-rule="nonzero" />
    <path fill="#dbba9a"
        d="M 104.191406 1459.65625 C 104.191406 1475.335938 91.800781 1488.039062 76.503906 1488.039062 C 61.207031 1488.039062 48.804688 1475.335938 48.804688 1459.65625 C 48.804688 1443.980469 61.207031 1431.269531 76.503906 1431.269531 C 91.800781 1431.269531 104.191406 1443.980469 104.191406 1459.65625 "
        fill-opacity="1" fill-rule="nonzero" />
    <path fill="#c6a081"
        d="M 362.289062 1457.234375 C 362.289062 1472.917969 349.894531 1485.621094 334.597656 1485.621094 C 319.300781 1485.621094 306.902344 1472.917969 306.902344 1457.234375 C 306.902344 1441.5625 319.300781 1428.859375 334.597656 1428.859375 C 349.894531 1428.859375 362.289062 1441.5625 362.289062 1457.234375 "
        fill-opacity="1" fill-rule="nonzero" />
    <path fill="#ffa05f"
        d="M 204.015625 1233.707031 C 203.503906 1233.707031 194.328125 1241.28125 193.84375 1241.472656 C 159.449219 1253.976562 139.335938 1257.492188 119.300781 1263.945312 C 47.867188 1286.921875 64.300781 1347.085938 64.300781 1417.695312 C 64.300781 1508.121094 126.167969 1581.425781 202.492188 1581.425781 C 203 1581.425781 203.503906 1581.40625 204.015625 1581.40625 L 204.015625 1233.707031 "
        fill-opacity="1" fill-rule="nonzero" />
    <path fill="#f29353"
        d="M 204.015625 1233.707031 C 204.535156 1233.707031 221.023438 1241.253906 221.496094 1241.472656 C 248.597656 1253.878906 262.316406 1256.71875 281.480469 1261.816406 C 361.257812 1283.011719 343.738281 1344.789062 343.738281 1417.695312 C 343.738281 1508.121094 281.871094 1581.425781 205.554688 1581.425781 C 205.046875 1581.425781 204.535156 1581.40625 204.015625 1581.40625 L 204.015625 1233.707031 "
        fill-opacity="1" fill-rule="nonzero" />
    <path fill="#6d7484"
        d="M 205.554688 1632.589844 L 80.34375 1632.589844 C 36.695312 1632.589844 1.316406 1665.542969 1.316406 1706.195312 L 1.316406 1792.488281 L 205.554688 1792.488281 L 205.554688 1632.589844 "
        fill-opacity="1" fill-rule="nonzero" />
    <path fill="#5d6475"
        d="M 204.015625 1632.589844 L 329.226562 1632.589844 C 372.875 1632.589844 408.253906 1665.542969 408.253906 1706.195312 L 408.253906 1792.488281 L 204.015625 1792.488281 L 204.015625 1632.589844 "
        fill-opacity="1" fill-rule="nonzero" />
    <path fill="#c6a081"
        d="M 664.441406 1671.632812 C 664.441406 1682.71875 649.21875 1691.707031 630.421875 1691.707031 L 609.308594 1691.707031 C 590.519531 1691.707031 575.296875 1682.71875 575.296875 1671.632812 L 575.296875 1562.90625 C 575.296875 1551.820312 590.519531 1542.835938 609.308594 1542.835938 L 630.421875 1542.835938 C 649.21875 1542.835938 664.441406 1551.820312 664.441406 1562.90625 L 664.441406 1671.632812 "
        fill-opacity="1" fill-rule="nonzero" />
    <path fill="#dbba9a"
        d="M 619.863281 1542.835938 L 609.308594 1542.835938 C 590.519531 1542.835938 575.296875 1551.820312 575.296875 1562.90625 L 575.296875 1671.632812 C 575.296875 1682.71875 590.519531 1691.707031 609.308594 1691.707031 L 619.863281 1691.707031 L 619.863281 1542.835938 "
        fill-opacity="1" fill-rule="nonzero" />
    <path fill="#63c4ef"
        d="M 621.398438 1632.589844 L 496.195312 1632.589844 C 452.546875 1632.589844 417.15625 1665.542969 417.15625 1706.195312 L 417.15625 1792.488281 L 621.398438 1792.488281 L 621.398438 1632.589844 "
        fill-opacity="1" fill-rule="nonzero" />
    <path fill="#3b9cb7"
        d="M 619.863281 1632.589844 L 745.066406 1632.589844 C 788.726562 1632.589844 824.105469 1665.542969 824.105469 1706.195312 L 824.105469 1792.488281 L 619.863281 1792.488281 L 619.863281 1632.589844 "
        fill-opacity="1" fill-rule="nonzero" />
    <path fill="#684533"
        d="M 643.609375 1703.691406 C 643.609375 1703.691406 652.179688 1713.5 651.007812 1724 C 649.84375 1734.488281 636.589844 1738.886719 633.078125 1742.953125 C 629.570312 1747.011719 629.183594 1748.703125 629.183594 1748.703125 C 629.183594 1748.703125 620.886719 1745.316406 620.941406 1736.863281 C 621 1728.394531 628.785156 1713.847656 628.785156 1713.847656 L 643.609375 1703.691406 "
        fill-opacity="1" fill-rule="nonzero" />
    <path fill="#5b3c2b"
        d="M 647.960938 1675.484375 C 647.960938 1675.484375 658.707031 1687.78125 657.242188 1700.9375 C 655.773438 1714.085938 640.429688 1713.714844 636.03125 1718.804688 C 631.632812 1723.894531 626.570312 1727.914062 626.570312 1727.914062 C 626.570312 1727.914062 619.484375 1727.660156 619.550781 1717.054688 C 619.617188 1706.441406 629.390625 1688.207031 629.390625 1688.207031 L 647.960938 1675.484375 "
        fill-opacity="1" fill-rule="nonzero" />
    <path fill="#523123"
        d="M 653.324219 1630.09375 C 653.324219 1630.09375 665.054688 1647.941406 659.679688 1665.316406 C 654.308594 1682.691406 628.417969 1694.144531 628.417969 1694.144531 C 628.417969 1694.144531 620.601562 1693.722656 619.617188 1680.574219 C 618.644531 1667.425781 628.417969 1645.359375 635.738281 1639.003906 C 643.070312 1632.636719 653.324219 1630.09375 653.324219 1630.09375 "
        fill-opacity="1" fill-rule="nonzero" />
    <path fill="#44261b"
        d="M 621.398438 1253.964844 C 620.875 1253.976562 620.382812 1253.984375 619.863281 1253.984375 L 619.863281 1610.078125 C 620.375 1610.085938 619.011719 1624.910156 619.648438 1630.09375 C 620.621094 1638.152344 626.976562 1647.875 628.445312 1652.980469 C 629.902344 1658.089844 629.902344 1660.207031 629.902344 1660.207031 C 629.902344 1660.207031 638.207031 1647.488281 651.886719 1644.089844 C 665.566406 1640.695312 678.269531 1625.417969 679.246094 1609.726562 C 679.527344 1605.261719 679.199219 1599.738281 678.609375 1594.109375 C 726.363281 1566.074219 759.589844 1504.074219 759.589844 1432.035156 C 759.589844 1373.542969 750.089844 1323.28125 721.984375 1290.582031 C 702.828125 1268.296875 682.5 1252.699219 621.398438 1253.964844 "
        fill-opacity="1" fill-rule="nonzero" />
    <path fill="#7f5849"
        d="M 592.507812 1691.808594 C 592.507812 1691.808594 583.972656 1704.257812 589.15625 1715.890625 C 594.339844 1727.535156 608.976562 1731.773438 615.363281 1736.796875 C 621.765625 1741.828125 622.996094 1746.859375 622.996094 1746.859375 C 622.996094 1746.859375 629.390625 1723.042969 625.425781 1719.335938 C 621.464844 1715.628906 616.589844 1710.859375 613.546875 1705.308594 C 610.488281 1699.746094 592.507812 1690.75 592.507812 1690.75 L 592.507812 1691.808594 "
        fill-opacity="1" fill-rule="nonzero" />
    <path fill="#774f3d"
        d="M 584.664062 1649.671875 C 584.664062 1649.671875 573.691406 1665.667969 580.351562 1680.648438 C 587.019531 1695.621094 601.824219 1700.75 610.054688 1707.21875 C 618.285156 1713.6875 626.429688 1721.453125 626.429688 1721.453125 C 626.429688 1721.453125 632.105469 1689.84375 627.007812 1685.074219 C 621.917969 1680.300781 618.339844 1672.570312 611.71875 1667.027344 C 605.152344 1661.53125 584.664062 1648.300781 584.664062 1648.300781 L 584.664062 1649.671875 "
        fill-opacity="1" fill-rule="nonzero" />
    <path fill="#684532"
        d="M 577.625 1602.519531 C 577.625 1602.519531 563.945312 1622.457031 572.253906 1641.121094 C 580.558594 1659.78125 604.007812 1666.574219 614.265625 1674.632812 C 624.527344 1682.691406 628.671875 1691.480469 628.671875 1691.480469 C 628.671875 1691.480469 636.742188 1652.574219 630.394531 1646.636719 C 624.046875 1640.695312 616.222656 1633.0625 611.332031 1624.152344 C 606.460938 1615.242188 577.625 1600.828125 577.625 1600.828125 L 577.625 1602.519531 "
        fill-opacity="1" fill-rule="nonzero" />
    <path fill="#56392c"
        d="M 629.902344 1615.242188 C 628.046875 1610.417969 624.472656 1606.425781 619.863281 1602.746094 L 619.863281 1253.984375 C 619.355469 1253.984375 618.851562 1253.964844 618.332031 1253.964844 C 564.742188 1253.964844 542.691406 1269.261719 522.578125 1288.460938 C 489.070312 1320.460938 480.148438 1370.5625 480.148438 1432.035156 C 480.148438 1502.625 512.039062 1563.578125 558.261719 1592.390625 C 560.957031 1606.746094 568.640625 1615.527344 586.914062 1622.882812 C 606.933594 1630.941406 632.464844 1650.03125 632.464844 1650.03125 C 632.464844 1650.03125 634.300781 1626.695312 629.902344 1615.242188 "
        fill-opacity="1" fill-rule="nonzero" />
    <path fill="#684533"
        d="M 607.101562 1731.859375 C 607.101562 1731.859375 598.644531 1739.652344 601.210938 1754.730469 C 603.753906 1769.824219 622.496094 1775.851562 619.550781 1785.507812 C 616.621094 1795.164062 610.300781 1791.25 610.300781 1791.25 C 610.300781 1791.25 614.1875 1797.585938 624.613281 1793.964844 C 635.039062 1790.339844 653.449219 1777.0625 651.121094 1756.847656 C 649.585938 1743.617188 641.667969 1736.796875 641.667969 1736.796875 L 624.320312 1741.382812 L 607.101562 1731.859375 "
        fill-opacity="1" fill-rule="nonzero" />
    <path fill="#c6a081"
        d="M 1080.289062 1671.632812 C 1080.289062 1682.71875 1065.070312 1691.707031 1046.273438 1691.707031 L 1025.15625 1691.707031 C 1006.371094 1691.707031 991.140625 1682.71875 991.140625 1671.632812 L 991.140625 1562.90625 C 991.140625 1551.820312 1006.371094 1542.835938 1025.15625 1542.835938 L 1046.273438 1542.835938 C 1065.070312 1542.835938 1080.289062 1551.820312 1080.289062 1562.90625 L 1080.289062 1671.632812 "
        fill-opacity="1" fill-rule="nonzero" />
    <path fill="#dbba9a"
        d="M 1035.714844 1542.835938 L 1025.15625 1542.835938 C 1006.371094 1542.835938 991.140625 1551.820312 991.140625 1562.90625 L 991.140625 1671.632812 C 991.140625 1682.71875 1006.371094 1691.707031 1025.15625 1691.707031 L 1035.714844 1691.707031 L 1035.714844 1542.835938 "
        fill-opacity="1" fill-rule="nonzero" />
    <path fill="#dbba9a"
        d="M 934.359375 1449.714844 C 934.359375 1465.386719 921.957031 1478.101562 906.660156 1478.101562 C 891.367188 1478.101562 878.972656 1465.386719 878.972656 1449.714844 C 878.972656 1434.039062 891.367188 1421.328125 906.660156 1421.328125 C 921.957031 1421.328125 934.359375 1434.039062 934.359375 1449.714844 "
        fill-opacity="1" fill-rule="nonzero" />
    <path fill="#c6a081"
        d="M 1192.457031 1447.292969 C 1192.457031 1462.964844 1180.054688 1475.679688 1164.765625 1475.679688 C 1149.472656 1475.679688 1137.070312 1462.964844 1137.070312 1447.292969 C 1137.070312 1431.621094 1149.472656 1418.917969 1164.765625 1418.917969 C 1180.054688 1418.917969 1192.457031 1431.621094 1192.457031 1447.292969 "
        fill-opacity="1" fill-rule="nonzero" />
    <path fill="#2d2927"
        d="M 1035.714844 1241.472656 C 1036.234375 1241.472656 1035.203125 1241.472656 1035.714844 1241.472656 C 1200.847656 1241.472656 1175.429688 1327.269531 1175.429688 1417.695312 C 1175.429688 1508.132812 1113.5625 1581.425781 1037.238281 1581.425781 C 1036.738281 1581.425781 1036.226562 1581.40625 1035.714844 1581.40625 L 1035.714844 1241.472656 "
        fill-opacity="1" fill-rule="nonzero" />
    <path fill="#3d4353"
        d="M 1037.238281 1632.589844 L 912.035156 1632.589844 C 868.398438 1632.589844 833.007812 1665.542969 833.007812 1706.195312 L 833.007812 1792.488281 L 1037.238281 1792.488281 L 1037.238281 1632.589844 "
        fill-opacity="1" fill-rule="nonzero" />
    <path fill="#303644"
        d="M 1035.714844 1632.589844 L 1160.917969 1632.589844 C 1204.566406 1632.589844 1239.945312 1665.542969 1239.945312 1706.195312 L 1239.945312 1792.488281 L 1035.714844 1792.488281 L 1035.714844 1632.589844 "
        fill-opacity="1" fill-rule="nonzero" />
    <path fill="#44403e"
        d="M 1008.234375 1237.582031 C 992.71875 1238.074219 967.507812 1240.015625 944.226562 1244.335938 C 920.957031 1248.660156 902.046875 1233.707031 902.046875 1233.707031 C 902.046875 1233.707031 903.503906 1248.253906 914.644531 1259.886719 C 917.703125 1263.074219 921.289062 1265.769531 924.910156 1268.019531 C 884.933594 1300.34375 895.992188 1358.011719 895.992188 1417.695312 C 895.992188 1508.132812 957.859375 1581.425781 1034.183594 1581.425781 C 1034.691406 1581.425781 1035.203125 1581.40625 1035.714844 1581.40625 L 1035.714844 1241.472656 C 1035.714844 1241.472656 1023.746094 1237.101562 1008.234375 1237.582031 "
        fill-opacity="1" fill-rule="nonzero" />
    <path fill="#c6a081"
        d="M 1496.132812 1671.632812 C 1496.132812 1682.71875 1480.910156 1691.707031 1462.121094 1691.707031 L 1441 1691.707031 C 1422.210938 1691.707031 1406.980469 1682.71875 1406.980469 1671.632812 L 1406.980469 1562.90625 C 1406.980469 1551.820312 1422.210938 1542.835938 1441 1542.835938 L 1462.121094 1542.835938 C 1480.910156 1542.835938 1496.132812 1551.820312 1496.132812 1562.90625 L 1496.132812 1671.632812 "
        fill-opacity="1" fill-rule="nonzero" />
    <path fill="#dbba9a"
        d="M 1451.554688 1542.835938 L 1441 1542.835938 C 1422.210938 1542.835938 1406.980469 1551.820312 1406.980469 1562.90625 L 1406.980469 1671.632812 C 1406.980469 1682.71875 1422.210938 1691.707031 1441 1691.707031 L 1451.554688 1691.707031 L 1451.554688 1542.835938 "
        fill-opacity="1" fill-rule="nonzero" />
    <path fill="#dbba9a"
        d="M 1351.734375 1450.925781 C 1351.734375 1466.597656 1339.332031 1479.300781 1324.035156 1479.300781 C 1308.738281 1479.300781 1296.347656 1466.597656 1296.347656 1450.925781 C 1296.347656 1435.25 1308.738281 1422.539062 1324.035156 1422.539062 C 1339.332031 1422.539062 1351.734375 1435.25 1351.734375 1450.925781 "
        fill-opacity="1" fill-rule="nonzero" />
    <path fill="#c6a081"
        d="M 1609.832031 1448.503906 C 1609.832031 1464.175781 1597.429688 1476.890625 1582.132812 1476.890625 C 1566.835938 1476.890625 1554.441406 1464.175781 1554.441406 1448.503906 C 1554.441406 1432.832031 1566.835938 1420.117188 1582.132812 1420.117188 C 1597.429688 1420.117188 1609.832031 1432.832031 1609.832031 1448.503906 "
        fill-opacity="1" fill-rule="nonzero" />
    <path fill="#725144"
        d="M 1451.554688 1253.984375 C 1451.042969 1253.984375 1450.542969 1253.976562 1450.03125 1253.976562 C 1284.890625 1253.976562 1311.832031 1327.269531 1311.832031 1417.695312 C 1311.832031 1508.132812 1373.710938 1581.425781 1450.03125 1581.425781 C 1450.542969 1581.425781 1451.042969 1581.40625 1451.554688 1581.40625 L 1451.554688 1253.984375 "
        fill-opacity="1" fill-rule="nonzero" />
    <path fill="#56392c"
        d="M 1451.554688 1253.984375 C 1452.074219 1253.984375 1452.566406 1253.976562 1453.089844 1253.976562 C 1618.230469 1253.976562 1591.277344 1327.269531 1591.277344 1417.695312 C 1591.277344 1508.132812 1529.410156 1581.425781 1453.089844 1581.425781 C 1452.578125 1581.425781 1452.066406 1581.40625 1451.554688 1581.40625 L 1451.554688 1253.984375 "
        fill-opacity="1" fill-rule="nonzero" />
    <path fill="#f5f5f5"
        d="M 1453.089844 1632.589844 L 1327.886719 1632.589844 C 1284.238281 1632.589844 1248.847656 1665.542969 1248.847656 1706.195312 L 1248.847656 1792.488281 L 1453.089844 1792.488281 L 1453.089844 1632.589844 "
        fill-opacity="1" fill-rule="nonzero" />
    <path fill="#c1c1c1"
        d="M 1451.554688 1632.589844 L 1576.769531 1632.589844 C 1620.40625 1632.589844 1655.796875 1665.542969 1655.796875 1706.195312 L 1655.796875 1792.488281 L 1451.554688 1792.488281 L 1451.554688 1632.589844 "
        fill-opacity="1" fill-rule="nonzero" />
    <path fill="#c6a081"
        d="M 1911.980469 1671.632812 C 1911.980469 1682.71875 1896.75 1691.707031 1877.964844 1691.707031 L 1856.839844 1691.707031 C 1838.0625 1691.707031 1822.820312 1682.71875 1822.820312 1671.632812 L 1822.820312 1562.90625 C 1822.820312 1551.820312 1838.0625 1542.835938 1856.839844 1542.835938 L 1877.964844 1542.835938 C 1896.75 1542.835938 1911.980469 1551.820312 1911.980469 1562.90625 L 1911.980469 1671.632812 "
        fill-opacity="1" fill-rule="nonzero" />
    <path fill="#dbba9a"
        d="M 1867.40625 1542.835938 L 1856.839844 1542.835938 C 1838.050781 1542.835938 1822.820312 1551.820312 1822.820312 1562.90625 L 1822.820312 1671.632812 C 1822.820312 1682.71875 1838.050781 1691.707031 1856.839844 1691.707031 L 1867.40625 1691.707031 L 1867.40625 1542.835938 "
        fill-opacity="1" fill-rule="nonzero" />
    <path fill="#dbba9a"
        d="M 1766.050781 1438.375 C 1766.050781 1454.046875 1753.648438 1466.757812 1738.351562 1466.757812 C 1723.054688 1466.757812 1710.664062 1454.046875 1710.664062 1438.375 C 1710.664062 1422.691406 1723.054688 1409.988281 1738.351562 1409.988281 C 1753.648438 1409.988281 1766.050781 1422.691406 1766.050781 1438.375 "
        fill-opacity="1" fill-rule="nonzero" />
    <path fill="#c6a081"
        d="M 2024.148438 1435.953125 C 2024.148438 1451.632812 2011.746094 1464.347656 1996.449219 1464.347656 C 1981.152344 1464.347656 1968.75 1451.632812 1968.75 1435.953125 C 1968.75 1420.277344 1981.152344 1407.566406 1996.449219 1407.566406 C 2011.746094 1407.566406 2024.148438 1420.277344 2024.148438 1435.953125 "
        fill-opacity="1" fill-rule="nonzero" />
    <path fill="#472919"
        d="M 1867.40625 1253.984375 C 1866.886719 1253.984375 1866.394531 1253.976562 1865.875 1253.976562 C 1700.730469 1253.976562 1727.683594 1327.269531 1727.683594 1417.695312 C 1727.683594 1508.132812 1789.550781 1581.425781 1865.875 1581.425781 C 1866.382812 1581.425781 1866.894531 1581.40625 1867.40625 1581.40625 L 1867.40625 1253.984375 "
        fill-opacity="1" fill-rule="nonzero" />
    <path fill="#351e0f"
        d="M 1867.40625 1253.984375 C 1867.917969 1253.984375 1868.410156 1253.976562 1868.929688 1253.976562 C 2034.070312 1253.976562 2007.128906 1327.269531 2007.128906 1417.695312 C 2007.128906 1508.132812 1945.25 1581.425781 1868.929688 1581.425781 C 1868.417969 1581.425781 1867.917969 1581.40625 1867.40625 1581.40625 L 1867.40625 1253.984375 "
        fill-opacity="1" fill-rule="nonzero" />
    <path fill="#ffa05f"
        d="M 1868.929688 1632.589844 L 1743.726562 1632.589844 C 1700.078125 1632.589844 1664.699219 1665.542969 1664.699219 1706.195312 L 1664.699219 1792.488281 L 1868.929688 1792.488281 L 1868.929688 1632.589844 "
        fill-opacity="1" fill-rule="nonzero" />
    <path fill="#f99048"
        d="M 1867.40625 1632.589844 L 1992.609375 1632.589844 C 2036.246094 1632.589844 2071.636719 1665.542969 2071.636719 1706.195312 L 2071.636719 1792.488281 L 1867.40625 1792.488281 L 1867.40625 1632.589844 "
        fill-opacity="1" fill-rule="nonzero" />
    <path fill="#ffc07b"
        d="M 999.199219 397.773438 L 999.199219 690.433594 L 962.53125 690.433594 C 962.53125 690.433594 967.414062 600.886719 933.273438 579.511719 C 899.140625 558.125 865.058594 496.664062 899.160156 443.203125 C 933.273438 389.75 999.199219 397.773438 999.199219 397.773438 "
        fill-opacity="1" fill-rule="nonzero" />
    <path fill="#ffa05f"
        d="M 999.199219 397.773438 L 999.199219 690.433594 L 1035.855469 690.433594 C 1035.855469 690.433594 1030.984375 600.886719 1065.117188 579.511719 C 1099.257812 558.125 1133.339844 496.664062 1099.230469 443.203125 C 1065.117188 389.75 999.199219 397.773438 999.199219 397.773438 "
        fill-opacity="1" fill-rule="nonzero" />
    <path fill="#c5d7d9"
        d="M 1049.855469 726.839844 C 1049.855469 729.886719 1047.125 732.363281 1043.753906 732.363281 L 954.632812 732.363281 C 951.265625 732.363281 948.542969 729.886719 948.542969 726.839844 L 948.542969 664.269531 C 948.542969 661.214844 951.265625 658.746094 954.632812 658.746094 L 1043.753906 658.746094 C 1047.125 658.746094 1049.855469 661.214844 1049.855469 664.269531 L 1049.855469 726.839844 "
        fill-opacity="1" fill-rule="nonzero" />
    <path fill="#b5c8c9"
        d="M 1043.753906 658.746094 L 999.199219 658.746094 L 999.199219 732.363281 L 1043.753906 732.363281 C 1047.125 732.363281 1049.855469 729.886719 1049.855469 726.839844 L 1049.855469 664.269531 C 1049.855469 661.214844 1047.125 658.746094 1043.753906 658.746094 "
        fill-opacity="1" fill-rule="nonzero" />
    <path fill="#ffc07b"
        d="M 866.03125 576.238281 L 804.777344 593.738281 C 801.542969 594.664062 799.867188 598.464844 801.03125 602.242188 C 802.1875 606.015625 805.753906 608.324219 808.976562 607.40625 L 870.230469 589.90625 C 873.46875 588.980469 875.140625 585.167969 873.988281 581.402344 C 872.824219 577.628906 869.257812 575.3125 866.03125 576.238281 "
        fill-opacity="1" fill-rule="nonzero" />
    <path fill="#ffc07b"
        d="M 850.839844 500.539062 C 851.085938 496.617188 848.550781 493.265625 845.191406 493.078125 L 781.414062 489.390625 C 778.054688 489.199219 775.121094 492.226562 774.886719 496.160156 C 774.640625 500.078125 777.164062 503.425781 780.53125 503.613281 L 844.300781 507.292969 C 847.660156 507.492188 850.59375 504.464844 850.839844 500.539062 "
        fill-opacity="1" fill-rule="nonzero" />
    <path fill="#ffc07b"
        d="M 857.074219 411.800781 C 859.644531 413.898438 863.863281 413.171875 866.515625 410.179688 C 869.152344 407.171875 869.210938 403.039062 866.636719 400.929688 L 817.9375 361.082031 C 815.375 358.980469 811.144531 359.710938 808.496094 362.707031 C 805.867188 365.707031 805.800781 369.847656 808.375 371.949219 L 857.074219 411.800781 "
        fill-opacity="1" fill-rule="nonzero" />
    <path fill="#ffc07b"
        d="M 944.992188 357.117188 L 927.976562 297.753906 C 927.078125 294.625 923.160156 292.941406 919.226562 293.992188 C 915.289062 295.03125 912.828125 298.425781 913.730469 301.558594 L 930.738281 360.910156 C 931.636719 364.042969 935.554688 365.726562 939.488281 364.683594 C 943.421875 363.625 945.890625 360.25 944.992188 357.117188 "
        fill-opacity="1" fill-rule="nonzero" />
    <path fill="#ffa05f"
        d="M 1121.734375 576.238281 L 1182.988281 593.738281 C 1186.222656 594.664062 1187.898438 598.464844 1186.734375 602.242188 C 1185.578125 606.015625 1182.011719 608.324219 1178.789062 607.40625 L 1117.535156 589.90625 C 1114.296875 588.980469 1112.625 585.167969 1113.777344 581.402344 C 1114.941406 577.628906 1118.5 575.3125 1121.734375 576.238281 "
        fill-opacity="1" fill-rule="nonzero" />
    <path fill="#ffa05f"
        d="M 1136.925781 500.539062 C 1136.679688 496.617188 1139.207031 493.265625 1142.574219 493.078125 L 1206.34375 489.390625 C 1209.710938 489.199219 1212.636719 492.226562 1212.890625 496.160156 C 1213.125 500.078125 1210.601562 503.425781 1207.234375 503.613281 L 1143.453125 507.292969 C 1140.097656 507.492188 1137.171875 504.464844 1136.925781 500.539062 "
        fill-opacity="1" fill-rule="nonzero" />
    <path fill="#ffa05f"
        d="M 1130.691406 411.800781 C 1128.121094 413.898438 1123.890625 413.171875 1121.25 410.179688 C 1118.613281 407.171875 1118.554688 403.039062 1121.121094 400.929688 L 1169.828125 361.082031 C 1172.390625 358.980469 1176.621094 359.710938 1179.261719 362.707031 C 1181.898438 365.707031 1181.964844 369.847656 1179.402344 371.949219 L 1130.691406 411.800781 "
        fill-opacity="1" fill-rule="nonzero" />
    <path fill="#ffa05f"
        d="M 1042.78125 357.117188 L 1059.789062 297.753906 C 1060.679688 294.625 1064.605469 292.941406 1068.539062 293.992188 C 1072.476562 295.03125 1074.9375 298.425781 1074.035156 301.558594 L 1057.027344 360.910156 C 1056.128906 364.042969 1052.214844 365.726562 1048.277344 364.683594 C 1044.34375 363.625 1041.882812 360.25 1042.78125 357.117188 "
        fill-opacity="1" fill-rule="nonzero" />
</svg>