<svg width="291" height="263" fill="none" xmlns="http://www.w3.org/2000/svg"><g clip-path="url(#clip0)"><path opacity=".288" fill-rule="evenodd" clip-rule="evenodd" d="M229.694 83.772c22.66 12.676 44.632 35.767 46.491 60.708 1.929 24.94-16.392 51.8-38.984 68.45-22.591 16.65-49.591 23.228-76.59 23.297-27.069.068-54.137-6.304-76.315-22.954-22.179-16.719-39.329-43.647-49.385-80.647-10.125-37-13.017-84.004 9.16-96.68 22.11-12.676 69.359 8.976 104.624 20.966 35.196 11.923 58.407 14.184 80.999 26.86z" fill="#CCA4FF"/><path fill-rule="evenodd" clip-rule="evenodd" d="M84.89 260.785h-5.095c-2.242 0-4.076-1.913-4.076-4.251L96.1 168.312c0-2.338 1.835-4.251 4.077-4.251h5.095c2.242 0 4.076 1.913 4.076 4.251l-20.381 88.222c0 2.338-1.835 4.251-4.076 4.251zM120.051 260.785h-5.096c-2.242 0-4.076-1.913-4.076-4.251v-88.222c0-2.338 1.834-4.251 4.076-4.251h5.096c2.242 0 4.076 1.913 4.076 4.251v88.222c0 2.338-1.834 4.251-4.076 4.251zM155.206 260.785h-5.096c-2.242 0-4.076-1.913-4.076-4.251l-20.382-88.222c0-2.338 1.835-4.251 4.077-4.251h5.095c2.242 0 4.076 1.913 4.076 4.251l20.382 88.222c0 2.338-1.834 4.251-4.076 4.251z" fill="#EEEEEF"/><path fill-rule="evenodd" clip-rule="evenodd" d="M149.859 170.824H85.143c-5.183 0-9.424-4.222-9.424-9.382v-4.909c0-5.161 4.24-9.383 9.424-9.383h64.716c5.184 0 9.425 4.222 9.425 9.383v4.909c0 5.16-4.241 9.382-9.425 9.382zM154.169 221.216H80.833c-2.813 0-5.114-2.292-5.114-5.092s2.301-5.092 5.114-5.092h73.336c2.813 0 5.115 2.292 5.115 5.092s-2.302 5.092-5.115 5.092z" fill="#817E85"/><path fill-rule="evenodd" clip-rule="evenodd" d="M271.362 214.637l-19.863 6.799c-1.069.365-2.172-.145-2.49-1.174-6.901-21.32-16.245-42.624-30.746-59.092-2.198-3.25-7.088-5.051-7.309-9.131-.64-3.453 7.554-13.685 8.856-16.586 5.416-7.229 12.128 3.089 16.253 6.934 17.282 19.474 28.439 44.137 36.564 69.371.375 1.214-.196 2.516-1.265 2.879z" fill="#8C6345"/><path fill-rule="evenodd" clip-rule="evenodd" d="M132.694 115.425l-10.337 17.335c-.47.803.39 2.082 1.099 2.734 10.193 7.101 22.326 8.312 33.591 9.156 45.574-1.199 67.314 19.054 83.655 63.885l30.964-13.963c-26.152-69.377-55.171-76.835-121.311-79.302-1.686-.127-7.573-.075-17.661.155z" fill="#051026"/><path fill-rule="evenodd" clip-rule="evenodd" d="M269.929 203.629l-12.85 5.245c2.099 4.738-8.045 8.659-9.373 3.825l-1.12.457c1.177 3.336 2.286 6.692 3.257 10.089l34.789-10.916c-.17-.6-.511-1.805-.691-2.395-.25-6.652-11.154-2.221-14.012-6.305z" fill="#0A1B45"/><path fill-rule="evenodd" clip-rule="evenodd" d="M271.723 194.453l-31.063 13.911a209.563 209.563 0 00-3.926-9.44l30.365-15.587a247.219 247.219 0 014.624 11.116z" fill="#D7DBE2"/><path fill-rule="evenodd" clip-rule="evenodd" d="M200.286 256.708l-20.726.019c-1.115 0-2.019-.95-2.024-2.133-.311-26.501-.633-53.23-4.251-79.378-1.017-4.709-1.869-8.971 3.534-10.485 3.107-.522 14.326-6.879 17.248-3.971 6.22 1.935 11.44 94.95 6.219 95.948z" fill="#B18058"/><path fill-rule="evenodd" clip-rule="evenodd" d="M114.904 115.359l-22.88 18.469c3.643 9.333 10.475 15.034 22.2 15.034 42.389 0 55.788 19.088 57.516 49.717.769 13.626 1.063 27.389 1.487 40.899l33.613-.734c-3.23-90.138 2.062-103.251-85.178-123.229 0-.104-2.253-.156-6.758-.156zM202.388 246.242l-13.63.192c.441 5.312-10.246 5.417-9.942.139l-1.187.017c.036 2.909.071 8.76.07 11.667l35.938.16-.005-4.039c-.016-3.176-9.831-3.877-11.244-8.136z" fill="#0A1B45"/><path fill-rule="evenodd" clip-rule="evenodd" d="M206.841 238.738l-33.699.741c-.071-3.786-.16-7.569-.271-11.344l33.689-1.17c.116 3.928.208 7.851.281 11.773z" fill="#D7DBE2"/><path fill-rule="evenodd" clip-rule="evenodd" d="M150.452 115.359c0 18.444-13.899 33.395-31.043 33.395h-1.885l-.03.087h-13.241c-10.506 0-19.022-8.479-19.022-18.939v-14.455-.088h65.221z" fill="#0A1B45"/><path fill-rule="evenodd" clip-rule="evenodd" d="M246.843 109.565c5.102-.387 7.98 1.831 9.462 3.728.74.944.51 2.141-.237 2.99-.745.848-2.001 1.336-3.26.854-1.261-.489-2.472-1.462-4.157-2.174-1.683-.709-3.818-1.126-6.942-.578-1.559.281-2.336.109-2.534-.268-.201-.382.174-.972.886-1.618 1.436-1.279 4.227-2.748 6.782-2.934zM238.012 116.097c-1.276-2.81-3.556-4.851-6.124-5.943-2.583-1.112-5.449-1.264-8.127-.297l-.991.368-.995.343c-.663.226-1.325.464-1.988.682-1.328.417-2.654.862-3.981 1.226-3.243.933-6.487 1.727-9.68 2.264-3.191.535-6.333.847-9.338.871-3.004.024-5.866-.247-8.452-.853a73.218 73.218 0 00-1.889-.515l-.905-.308-.895-.346a26.17 26.17 0 01-3.499-1.754c-4.58-2.717-8.785-7.07-12.351-12.279-3.576-5.213-6.545-11.232-8.974-17.54a12.904 12.904 0 00-5.757-6.63c-2.558-1.426-5.612-2.004-8.6-1.195-2.985.808-5.323 2.923-6.562 5.805-1.241 2.868-1.37 6.496-.018 10.004 2.93 7.582 6.545 15.049 11.4 22.148 2.432 3.542 5.188 6.984 8.382 10.196 3.19 3.205 6.835 6.182 10.967 8.644a48.587 48.587 0 006.515 3.257l1.719.663 1.749.595c1.169.337 2.343.655 3.519.967 4.697 1.104 9.336 1.492 13.804 1.462 4.472-.036 8.791-.489 12.972-1.192 4.183-.706 8.212-1.696 12.151-2.83 1.619-.449 3.193-.971 4.78-1.473.789-.259 1.565-.537 2.348-.804l1.171-.406 1.158-.428c3.143-1.138 5.443-3.458 6.601-6.134 1.154-2.698 1.164-5.762-.11-8.568z" fill="#8C6345"/><path fill-rule="evenodd" clip-rule="evenodd" d="M230.495 131.18c-1.924.671-3.602-3.36-4.87-8.178-.637-2.409-1.183-5.011-1.608-7.322-.424-2.312-.727-4.332-.841-5.604l1.843-.684a142.589 142.589 0 017.622-2.67c2.349-.733 4.509-1.327 6.507-1.772 3.988-.904 7.313-1.248 10.049-1.26 5.462-.037 8.577 1.275 9.519 1.498.929.217 1.632 1.071 1.794 2.022.177.94-.145 1.938-1.133 2.336-.939.386-5.494 1.017-9.789 2.221-4.299 1.233-8.378 3.071-8.607 6.695-.134 2.191.707 3.381 1.968 4.016 1.263.643 2.921.705 4.36.706 1.712-.007 2.778 1.196 3.042 2.516.266 1.319-.291 2.754-1.79 3.131-1.252.329-2.75.533-4.329.709-1.595.153-3.268.284-4.94.385-3.322.241-6.568.437-8.797 1.255z" fill="#8C6345"/><path fill-rule="evenodd" clip-rule="evenodd" d="M224.504 107.416a121.243 121.243 0 01-8.784 2.972 3.216 3.216 0 00-.764-.257 8.962 8.962 0 00-1.048-.14 24.238 24.238 0 00-2.711-.07l-1.629.044c-.57.019-1.168.051-1.791.094-1.228.02-2.577.147-3.958.167-2.779.106-5.821.146-8.727-.119-1.441-.146-2.873-.323-4.181-.621a25.993 25.993 0 00-.984-.212c-.173-.024-.31-.089-.464-.133l-.454-.139c-.299-.096-.622-.16-.911-.263-.285-.111-.578-.193-.864-.32a22.226 22.226 0 01-3.516-1.744 28.64 28.64 0 01-3.627-2.604 39.177 39.177 0 01-3.627-3.451 53.823 53.823 0 01-3.467-4.11c-2.236-2.9-4.269-6.069-6.073-9.146-1.805-3.083-3.607-6.443-5.196-9.089-1.589-2.646-3.744-6.427-8.416-9.64-4.671-3.212-8.119-3.417-8.119-3.417-4.056.761-8.991 5.962-10.788 9.816-1.802 3.842-2.107 8.797-.359 13.64a92.335 92.335 0 005.227 15.023c2.298 5.103 5.182 10.265 8.859 15.218 3.674 4.939 8.175 9.692 13.596 13.634 2.71 1.962 5.617 3.731 8.692 5.167.772.353 1.534.711 2.324 1.023l1.173.472 1.188.431a41.418 41.418 0 004.757 1.396c.785.189 1.567.371 2.343.545.765.131 1.524.249 2.279.365.751.106 1.509.24 2.238.307l2.164.171 1.067.075c.356.027.707.046 1.046.044l2.035.014 1.001-.001c.333.001.663-.002.98-.025l1.899-.113c.623-.043 1.246-.076 1.848-.134l1.76-.212 1.712-.221c.564-.073 1.094-.186 1.63-.278l1.572-.293c.516-.098 1.025-.192 1.507-.315.974-.231 1.913-.461 2.816-.69 3.565-.983 6.48-2.035 8.69-3.03 1.102-.502 2.06-.944 2.814-1.389a18.94 18.94 0 001.009-.621c.294-.195.491-.362.678-.527a147.2 147.2 0 0010.648-3.6l-9.094-23.694z" fill="#9B51E0"/><path fill-rule="evenodd" clip-rule="evenodd" d="M215.816 110.361l7.399 24.802c3.6-1.075 7.127-2.264 10.566-3.578l-9.277-24.168a122.419 122.419 0 01-8.688 2.944z" fill="#9B51E0"/><path fill-rule="evenodd" clip-rule="evenodd" d="M157.51 115.648H84.652V79.44c0-7.937 6.463-14.372 14.435-14.372h43.988c7.973 0 14.435 6.435 14.435 14.372v36.208z" fill="#D7DBE2"/><path fill-rule="evenodd" clip-rule="evenodd" d="M134.246 65.068c0 5.6-2.718 12.702-11.719 12.702-10.701 0-15.117-6.06-15.117-12.702h26.836z" fill="#B18058"/><path fill-rule="evenodd" clip-rule="evenodd" d="M136.67 136.755c8.786.199 16.26-.477 24.224-3.13.735-.245 1.36-.711 1.293-1.48l-1.072-12.205c-8.181.354-16.723 1.936-25.715 3.339-.169 4.37-.341 8.403-.5 11.902-.043.964.801 1.552 1.77 1.574zM80.42 120.329l-.972 11.067a2.819 2.819 0 001.924 2.928c8.352 2.732 20.314 4.134 28.166 4.682a2.385 2.385 0 002.525-2.021c.533-3.479.916-7.343 1.18-11.452-8.393-.326-23.62-1.783-32.822-5.204z" fill="#9B51E0"/><path fill-rule="evenodd" clip-rule="evenodd" d="M94.285 65.678c-5.941 1.78-10.27 7.266-10.27 13.761l-3.593 40.89c9.203 3.421 24.429 4.878 32.822 5.203 1.037-16.201 2.319-48.777-7.532-53.85 0 0-7.134-7.44-11.427-6.004zM135.398 123.279c9.377.486 17.19-.191 25.715-3.339l-3.558-40.5c0-7.236-5.372-13.22-12.361-14.222-.906 3.506-4.191 4.605-8.911 6.802.222 15.017-.299 36.146-.885 51.259z" fill="#BF7AFF"/><path fill-rule="evenodd" clip-rule="evenodd" d="M12.465 12.226c-3.077.292-5.753 1.823-7.526 4.147C3.155 18.69 2.298 21.8 2.812 25.04c1.12 7.102 2.677 14.201 4.817 21.286 1.204 3.923 2.612 7.84 4.3 11.732 1.691 3.889 3.663 7.756 6.073 11.529 2.406 3.766 5.304 7.441 8.82 10.775.217.209.424.423.652.626l.699.6 1.407 1.191.708.59.745.562c.497.375 1 .743 1.516 1.086a47.3 47.3 0 006.393 3.683c4.399 2.101 8.967 3.48 13.465 4.332 4.504.853 8.95 1.195 13.293 1.21 4.344.01 8.589-.31 12.744-.853a121.988 121.988 0 0012.217-2.257c3.694-.87 6.65-3.024 8.345-5.665 1.706-2.646 2.153-5.764 1.143-8.674-1.011-2.915-3.22-5.1-5.857-6.396a13.142 13.142 0 00-8.8-.985c-6.649 1.569-13.36 2.52-19.732 2.508-6.362-.009-12.352-1.052-17.122-3.346a24.879 24.879 0 01-3.368-1.937 12.661 12.661 0 01-.774-.555l-.381-.284-.368-.319-.742-.629-.376-.31c-.123-.108-.238-.237-.358-.354-1.935-1.833-3.756-4.069-5.381-6.624-3.26-5.12-5.821-11.266-7.813-17.736-1.772-5.871-3.136-12.015-4.121-18.276-.451-2.848-2.038-5.273-4.267-6.97-2.237-1.689-5.138-2.648-8.224-2.354z" fill="#B18058"/><path fill-rule="evenodd" clip-rule="evenodd" d="M3.821 6.306C2.134 6.402.853 7.94.995 9.726c.615 7.753 1.66 15.43 3.23 23.124.375 1.77 2.028 2.9 3.672 2.525 1.648-.375 2.678-2.05 2.32-3.743C8.701 24.217 7.685 16.76 7.09 9.252c-.136-1.718-1.585-3.04-3.27-2.946z" fill="#B18058"/><path fill-rule="evenodd" clip-rule="evenodd" d="M9.068 2.186c-1.688.042-3.013 1.533-2.914 3.278.194 3.385.479 6.74.856 10.089.194 1.726 1.731 2.947 3.41 2.729a3.09 3.09 0 002.667-3.403 177.917 177.917 0 01-.828-9.753 3.125 3.125 0 00-3.191-2.94z" fill="#B18058"/><path fill-rule="evenodd" clip-rule="evenodd" d="M14.482 1.388a2.934 2.934 0 00-2.939 3.099c.17 3.272.443 6.537.792 9.794a3.014 3.014 0 003.387 2.653c1.67-.21 2.874-1.69 2.693-3.305a172.967 172.967 0 01-.765-9.452c-.085-1.608-1.481-2.839-3.168-2.789zM23.721 12.1c-1.68.166-2.914 1.602-2.72 3.204.37 3.106.823 6.199 1.36 9.265.144.788 1.052 1.608 1.956 2.204.897.6 1.753.992 1.753.992-.362-1.856 2.743-1.807 2.151-5.156a177.527 177.527 0 01-1.148-8.022c-.186-1.538-1.672-2.653-3.352-2.487z" fill="#B18058"/><path fill-rule="evenodd" clip-rule="evenodd" d="M20.007 3.738c-1.687.074-2.994 1.452-2.879 3.086a178.476 178.476 0 001.89 16.326c.254 1.62 1.857 2.673 3.51 2.37 1.668-.306 2.768-1.793 2.526-3.345A172.666 172.666 0 0123.228 6.41c-.11-1.562-1.534-2.747-3.221-2.67z" fill="#B18058"/><path fill-rule="evenodd" clip-rule="evenodd" d="M2.691 35.412c.805 3.633 1.707 7.267 2.81 10.905a3.96 3.96 0 00-.122.419c-.037.15-.067.308-.08.509a12.32 12.32 0 00-.03 1.307c.026.97.116 2.134.36 3.478.114.67.25 1.386.407 2.142.167.756.38 1.555.603 2.391l.355 1.284c.124.437.28.885.427 1.34.308.913.611 1.86.986 2.84.386.982.796 1.996 1.228 3.038.463 1.044.98 2.117 1.506 3.215.252.548.57 1.104.87 1.665l.937 1.7c.304.572.675 1.148 1.039 1.728l1.115 1.755c.362.59.814 1.178 1.237 1.771l1.315 1.787c.451.597.974 1.187 1.469 1.784.509.594 1.004 1.194 1.546 1.786.565.586 1.139 1.172 1.721 1.757.583.585 1.157 1.175 1.825 1.733 1.3 1.127 2.598 2.265 4.06 3.31 2.881 2.098 6.017 3.868 9.233 5.31a57.318 57.318 0 009.776 3.296c6.528 1.556 12.851 1.95 18.652 1.747 5.81-.212 11.136-1.013 15.893-2.054a94.971 94.971 0 0012.507-3.646c5.006-1.292 8.949-4.334 11.124-7.98 2.187-3.648 2.629-7.898.967-11.66-1.649-3.767-4.638-6.53-8.143-8.135-3.514-1.6-7.284-1.6-11.46-1.031-4.177.567-8.034.974-12.065 1.229-4.027.25-8.008.298-11.665.012-.92-.06-1.804-.165-2.68-.264-.86-.12-1.715-.234-2.524-.391a34.628 34.628 0 01-4.514-1.117 25.532 25.532 0 01-3.736-1.516c-.293-.13-.546-.296-.825-.432l-.785-.457-.375-.24a2.769 2.769 0 01-.376-.255 19.853 19.853 0 00-.749-.544c-2.014-1.466-4.027-3.51-5.824-5.758-1.803-2.245-3.4-4.657-4.795-6.858a94.869 94.869 0 00-1.013-1.613 84.454 84.454 0 00-.919-1.542c-.614-.968-1.126-1.908-1.64-2.704l-.372-.582-.341-.553a24.116 24.116 0 00-.643-.969c-.204-.291-.4-.552-.584-.778a5.565 5.565 0 00-.49-.527c-.894-2.937-1.646-5.971-2.326-9.038L2.69 35.412z" fill="#BF7AFF"/><path fill-rule="evenodd" clip-rule="evenodd" d="M103.673 51.39c-13.927 1.691-15.25 13.448-9.388 14.626 4.633.931 7.603 6.345 11.666 8.425.906.464 1.973-.247 1.902-1.26l-.06-.854c-.223-3.135.248-7.146 3.405-7.122 5.66.042 14.136.036 19.582-.012 2.954-.026 5.387 2.648 5.458 5.588.012.482.024.97.033 1.464.02.994 1.103 1.605 1.969 1.11 3.672-2.093 6.178-4.794 6.954-7.799a7.903 7.903 0 00.262-1.99c0-7.846-27.628-13.894-41.783-12.176zM5.467 46.198L30.37 38.8c-.881-2.89-1.617-5.882-2.288-8.903L2.69 35.412c.798 3.593 1.683 7.188 2.776 10.786z" fill="#9B51E0"/><path fill-rule="evenodd" clip-rule="evenodd" d="M112.406 50.087h15.286V67.55c0 4.702-3.422 8.514-7.643 8.514s-7.643-3.812-7.643-8.514V50.087z" fill="#B18058"/><path fill-rule="evenodd" clip-rule="evenodd" d="M128.39 60.91h-1.694c-7.892 0-14.29-6.37-14.29-14.226V40.01c0-6.015 4.898-10.89 10.939-10.89h1.9c6.042 0 10.94 4.875 10.94 10.89V53.15c0 4.286-3.49 7.76-7.795 7.76z" fill="#B18058"/><path fill-rule="evenodd" clip-rule="evenodd" d="M116.481 48.904c0 2.334-1.901 4.227-4.247 4.227-2.345 0-4.246-1.893-4.246-4.227 0-2.335 1.901-4.228 4.246-4.228 2.346 0 4.247 1.893 4.247 4.228z" fill="#B18058"/><path fill-rule="evenodd" clip-rule="evenodd" d="M111.406 47.1c.308 0 .733.071 1.169.288.73.363 1.191 1.027 1.222 1.99l.001.104h-1.019c0-.62-.238-.976-.659-1.186a1.805 1.805 0 00-.694-.18h-.02V47.1z" fill="#000"/><path opacity=".12" fill-rule="evenodd" clip-rule="evenodd" d="M119.794 61.698c-3.157-1.112-4.733-3.92-5.356-7.699a14.292 14.292 0 0012.08 6.91h1.174c-2.696 1.431-5.329 1.694-7.898.79z" fill="#000"/><path fill-rule="evenodd" clip-rule="evenodd" d="M112.406 28.104c0-1.12.913-2.029 2.038-2.029h19.044c1.117 0 2.027.896 2.038 2.009l.083 8.133v.004H116.66l-2.804 8.455h-1.45V28.104z" fill="#000"/><path d="M119.387 41.655s2.061-2.052 5.358-2.052M133.536 41.516s-1.805-1.796-4.692-1.796M121.008 45.01c.679-1.691 3.736-1.691 4.076 0M129.5 45.01c.679-1.691 3.737-1.691 4.076 0" stroke="#000"/><path fill-rule="evenodd" clip-rule="evenodd" d="M130.52 56.17h-4.358c-1.533 0-2.775-1.219-2.775-2.723v-.32h7.133c-.493.627-.493 1.964 0 3.044z" fill="#000"/><path d="M128.278 50.033l-1.179-6.339.422-.078 1.338 7.191h-2.705v-.425h2.189l-.065-.349z" stroke="#000" stroke-width=".59"/><path d="M259.153 24.046h-87.301v73.389h87.301v-73.39z" fill="#9B51E0"/><path d="M180.684 24.046h-8.832v73.389h8.832v-73.39z" fill="#BF7AFF"/><path d="M205.142 111.301h-68.958v5.073h68.958v-5.073z" fill="#051026"/><path d="M159.283 111.301h-23.099v5.073h23.099v-5.073z" fill="#817E85"/><path d="M269.004 116.036H92.364v12.852h176.64v-12.852z" fill="#DAD9DB"/><path d="M151.47 116.036H92.363v12.852h59.107v-12.852z" fill="#DAB7FB"/><path d="M179.665 116.036H92.363v12.852h87.302v-12.852z" fill="#EEEEEF"/><path fill-rule="evenodd" clip-rule="evenodd" d="M97.798 128.887h11.549L79.454 260.785H73.34l24.458-131.898zM178.983 128.887h-11.549l29.893 131.898h6.114l-24.458-131.898zM265.269 128.887h-11.55l29.893 131.898h6.115l-24.458-131.898z" fill="#DAD9DB"/><path d="M239.112 52.116h-21.401v63.92h21.401v-63.92z" fill="#817E85"/><path d="M223.825 52.116h-6.114v63.92h6.114v-63.92z" fill="#EEEEEF"/></g><defs><clipPath id="clip0"><path fill="#fff" transform="translate(.11)" d="M0 0h290v263H0z"/></clipPath></defs></svg>